<?xml version="1.0" encoding="utf-8"?>
<svg
  width="129"
  height="40"
  viewBox="0 0 129 40"
  fill="none"
  xmlns="http://www.w3.org/2000/svg"
>
  <path
    opacity="0.5"
    d="M25.9771 31.2271C25.318 31.568 24.6134 31.8634 23.9089 32.1134C23.8634 32.1361 23.8407 32.1361 23.7953 32.1361C23.6134 32.2043 23.4316 32.2498 23.2271 32.2952C23.1816 32.318 23.1134 32.318 23.068 32.3407C22.8634 32.3861 22.6362 32.4316 22.4089 32.4771C22.3635 32.4771 22.318 32.4998 22.2725 32.4998C22.068 32.5452 21.8407 32.568 21.6362 32.5907C21.6134 32.5907 21.5907 32.5907 21.568 32.5907C21.318 32.6134 21.0907 32.6361 20.8407 32.6589C20.818 32.6589 20.7725 32.6589 20.7498 32.6589C20.4998 32.6816 20.2498 32.6816 19.9998 32.6816C19.9089 32.6816 19.8407 32.6816 19.7725 32.6816C19.6589 32.6816 19.5453 32.6816 19.4316 32.6816C19.2725 32.6816 19.1135 32.6589 18.9544 32.6589C15.7044 32.3861 12.818 30.9089 10.7044 28.6589L10.0453 33.7952L4.93164 33.1589C8.61346 37.3407 13.9998 39.9998 19.9998 39.9998C21.9089 39.9998 23.7498 39.7271 25.4998 39.2271C27.5907 38.6361 29.5225 37.7043 31.2725 36.5225L25.9771 31.2271Z"
    fill="#5540DB"
  />
  <path
    d="M9.27272 32.7955L9.90909 27.7274C8.27272 25.591 7.29545 22.9092 7.29545 20.0001C7.29545 17.4092 8.06818 14.9774 9.40909 12.9774L4.20454 13.591L3.61364 8.54553C1.34091 11.7728 0 15.7274 0 20.0001C0 24.5683 1.54545 28.7728 4.11363 32.1364L9.27272 32.7955Z"
    fill="#5540DB"
  />
  <path
    opacity="0.75"
    d="M25.1819 0.682001C23.5228 0.227456 21.7955 0.000183105 20.0001 0.000183105C13.7046 0.000183105 8.06827 2.932 4.40918 7.47746L5.00009 12.5684L10.1364 11.9775C12.4774 9.11382 16.0001 7.29564 19.9774 7.29564C21.0455 7.29564 22.0683 7.432 23.0683 7.682L20.6819 2.97746L25.1819 0.682001Z"
    fill="#5540DB"
  />
  <path
    opacity="0.5"
    d="M26.4319 1.0686L21.9092 3.36406L24.2728 8.02315C28.9319 9.68224 32.341 14.0004 32.6592 19.1595L36.341 15.4777L39.9546 19.0913C39.6137 10.705 34.0683 3.65951 26.4319 1.0686Z"
    fill="#5540DB"
  />
  <path
    d="M39.9993 20.4093L36.3629 16.7729L32.7038 20.432C32.5447 25.1138 29.8629 29.1592 25.9766 31.2274L31.2266 36.4774L34.7038 39.9547C36.7038 38.4774 38.4766 36.7047 39.9538 34.7047L36.4993 31.2502C38.6357 28.182 39.9084 24.432 39.9993 20.4093Z"
    fill="#5540DB"
  />
  <path
    d="M19.9998 19.8411H27.3407C27.3407 15.7956 24.068 12.5002 19.9998 12.5002C15.9316 12.5002 12.6816 15.7956 12.6816 19.8411C12.6816 23.8865 15.9544 27.182 20.0225 27.182V19.8411H19.9998Z"
    fill="#231B5C"
  />
  <path
    d="M66.6297 19.7273C66.6297 14.9688 63.6752 12.2557 59.8186 12.2557C55.9408 12.2557 53.0075 14.9688 53.0075 19.7273C53.0075 24.4645 55.9408 27.1989 59.8186 27.1989C60.7277 27.1989 61.5871 27.0497 62.3683 26.7514L63.5402 28.1932H66.4095L64.3286 25.5795C65.749 24.3082 66.6297 22.3196 66.6297 19.7273ZM58.7533 21.9432L60.6141 24.4006C60.3655 24.4503 60.0956 24.4787 59.8186 24.4787C57.5814 24.4787 56.1254 22.8097 56.1254 19.7273C56.1254 16.6449 57.5814 14.9759 59.8186 14.9759C62.0487 14.9759 63.5118 16.6449 63.5118 19.7273C63.5118 21.3111 63.1212 22.5256 62.4465 23.3281L61.3669 21.9432H58.7533ZM77.8921 12.4545V21.6378C77.8921 23.2997 76.7274 24.5 74.9376 24.5C73.1549 24.5 71.983 23.2997 71.983 21.6378V12.4545H68.9078V21.9006C68.9078 25.0824 71.3083 27.206 74.9376 27.206C78.5526 27.206 80.9674 25.0824 80.9674 21.9006V12.4545H77.8921ZM86.5729 12.4545H83.4976V27H86.5729V12.4545ZM91.7309 12.4545H88.3147L93.336 27H97.2991L102.313 12.4545H98.9042L95.3815 23.5057H95.2465L91.7309 12.4545ZM104.064 27H113.894V24.4645H107.139V20.9915H113.361V18.456H107.139V14.9901H113.865V12.4545H104.064V27ZM116.31 27H119.385V21.8438H121.63L124.385 27H127.78L124.691 21.3466C126.346 20.6364 127.262 19.1946 127.262 17.206C127.262 14.3153 125.351 12.4545 122.049 12.4545H116.31V27ZM119.385 19.3722V14.9688H121.459C123.235 14.9688 124.094 15.7571 124.094 17.206C124.094 18.6477 123.235 19.3722 121.473 19.3722H119.385Z"
    fill="#231B5C"
  />
</svg>