<svg width="20" height="20" viewBox="0 0 20 20" fill="none" xmlns="http://www.w3.org/2000/svg">
<g clip-path="url(#clip0)">
<path d="M18.8333 1.14282L11.3281 6.69614L12.7238 3.42339L18.8333 1.14282Z" fill="#E17726" stroke="#E17726" stroke-width="0.25" stroke-linecap="round" stroke-linejoin="round"/>
<path d="M1.52148 1.14282L8.95986 6.74797L7.63106 3.42338L1.52148 1.14282Z" fill="#E27625" stroke="#E27625" stroke-width="0.25" stroke-linecap="round" stroke-linejoin="round"/>
<path d="M16.1307 14.019L14.1338 17.0697L18.4097 18.247L19.6346 14.0857L16.1307 14.019Z" fill="#E27625" stroke="#E27625" stroke-width="0.25" stroke-linecap="round" stroke-linejoin="round"/>
<path d="M0.727539 14.0857L1.94499 18.247L6.21353 17.0697L4.22401 14.019L0.727539 14.0857Z" fill="#E27625" stroke="#E27625" stroke-width="0.25" stroke-linecap="round" stroke-linejoin="round"/>
<path d="M5.98364 8.8657L4.7959 10.6576L9.0273 10.8501L8.88627 6.29639L5.98364 8.8657Z" fill="#E27625" stroke="#E27625" stroke-width="0.25" stroke-linecap="round" stroke-linejoin="round"/>
<path d="M14.3717 8.86566L11.4246 6.24451L11.3281 10.8501L15.5595 10.6575L14.3717 8.86566Z" fill="#E27625" stroke="#E27625" stroke-width="0.25" stroke-linecap="round" stroke-linejoin="round"/>
<path d="M6.21387 17.0697L8.77495 15.8332L6.57021 14.1154L6.21387 17.0697Z" fill="#E27625" stroke="#E27625" stroke-width="0.25" stroke-linecap="round" stroke-linejoin="round"/>
<path d="M11.5811 15.8332L14.1347 17.0697L13.7858 14.1154L11.5811 15.8332Z" fill="#E27625" stroke="#E27625" stroke-width="0.25" stroke-linecap="round" stroke-linejoin="round"/>
<path d="M14.1347 17.0699L11.5811 15.8334L11.7889 17.4919L11.7666 18.1954L14.1347 17.0699Z" fill="#D5BFB2" stroke="#D5BFB2" stroke-width="0.25" stroke-linecap="round" stroke-linejoin="round"/>
<path d="M6.21387 17.0699L8.58941 18.1954L8.57455 17.4919L8.77495 15.8334L6.21387 17.0699Z" fill="#D5BFB2" stroke="#D5BFB2" stroke-width="0.25" stroke-linecap="round" stroke-linejoin="round"/>
<path d="M8.63389 13.0196L6.51074 12.3976L8.01029 11.709L8.63389 13.0196Z" fill="#233447" stroke="#233447" stroke-width="0.25" stroke-linecap="round" stroke-linejoin="round"/>
<path d="M11.7217 13.0196L12.3453 11.709L13.8523 12.3976L11.7217 13.0196Z" fill="#233447" stroke="#233447" stroke-width="0.25" stroke-linecap="round" stroke-linejoin="round"/>
<path d="M6.21312 17.0697L6.58432 14.019L4.22363 14.0857L6.21312 17.0697Z" fill="#CC6228" stroke="#CC6228" stroke-width="0.25" stroke-linecap="round" stroke-linejoin="round"/>
<path d="M13.7705 14.019L14.1343 17.0697L16.1312 14.0857L13.7705 14.019Z" fill="#CC6228" stroke="#CC6228" stroke-width="0.25" stroke-linecap="round" stroke-linejoin="round"/>
<path d="M15.5595 10.6575L11.3281 10.85L11.7216 13.0195L12.3452 11.7089L13.8521 12.3975L15.5595 10.6575Z" fill="#CC6228" stroke="#CC6228" stroke-width="0.25" stroke-linecap="round" stroke-linejoin="round"/>
<path d="M6.51073 12.3975L8.01027 11.7089L8.63387 13.0195L9.0273 10.85L4.7959 10.6575L6.51073 12.3975Z" fill="#CC6228" stroke="#CC6228" stroke-width="0.25" stroke-linecap="round" stroke-linejoin="round"/>
<path d="M4.79492 10.6575L6.56916 14.1154L6.50973 12.3975L4.79492 10.6575Z" fill="#E27525" stroke="#E27525" stroke-width="0.25" stroke-linecap="round" stroke-linejoin="round"/>
<path d="M13.852 12.3975L13.7852 14.1154L15.5594 10.6575L13.852 12.3975Z" fill="#E27525" stroke="#E27525" stroke-width="0.25" stroke-linecap="round" stroke-linejoin="round"/>
<path d="M9.02728 10.85L8.63379 13.0195L9.13116 15.5814L9.24253 12.205L9.02728 10.85Z" fill="#E27525" stroke="#E27525" stroke-width="0.25" stroke-linecap="round" stroke-linejoin="round"/>
<path d="M11.328 10.85L11.1201 12.1976L11.2241 15.5814L11.7214 13.0195L11.328 10.85Z" fill="#E27525" stroke="#E27525" stroke-width="0.25" stroke-linecap="round" stroke-linejoin="round"/>
<path d="M11.721 13.0196L11.2236 15.5815L11.58 15.8332L13.7848 14.1154L13.8516 12.3976L11.721 13.0196Z" fill="#F5841F" stroke="#F5841F" stroke-width="0.25" stroke-linecap="round" stroke-linejoin="round"/>
<path d="M6.51074 12.3976L6.57017 14.1154L8.77491 15.8332L9.13126 15.5815L8.63389 13.0196L6.51074 12.3976Z" fill="#F5841F" stroke="#F5841F" stroke-width="0.25" stroke-linecap="round" stroke-linejoin="round"/>
<path d="M11.7667 18.1953L11.7889 17.4919L11.5959 17.329H8.76015L8.57455 17.4919L8.58941 18.1953L6.21387 17.0698L7.0453 17.751L8.73044 18.9135H11.6182L13.3107 17.751L14.1347 17.0698L11.7667 18.1953Z" fill="#C0AC9D" stroke="#C0AC9D" stroke-width="0.25" stroke-linecap="round" stroke-linejoin="round"/>
<path d="M11.5807 15.8331L11.2244 15.5814H9.13096L8.77468 15.8331L8.57422 17.4918L8.75982 17.3289H11.5956L11.7886 17.4918L11.5807 15.8331Z" fill="#161616" stroke="#161616" stroke-width="0.25" stroke-linecap="round" stroke-linejoin="round"/>
<path d="M19.153 7.05894L19.784 3.99353L18.8338 1.14282L11.5811 6.51105L14.3723 8.86562L18.3141 10.0133L19.1827 8.99894L18.8041 8.72494L19.4054 8.17705L18.9452 7.82162L19.5465 7.36254L19.153 7.05894Z" fill="#763E1A" stroke="#763E1A" stroke-width="0.25" stroke-linecap="round" stroke-linejoin="round"/>
<path d="M0.571289 3.99353L1.20971 7.05894L0.80142 7.36254L1.41015 7.82162L0.949889 8.17705L1.55119 8.72494L1.17259 8.99894L2.04115 10.0133L5.98306 8.86562L8.77426 6.51105L1.5215 1.14282L0.571289 3.99353Z" fill="#763E1A" stroke="#763E1A" stroke-width="0.25" stroke-linecap="round" stroke-linejoin="round"/>
<path d="M18.3135 10.0133L14.3716 8.8656L15.5594 10.6575L13.7852 14.1153L16.131 14.0857H19.6349L18.3135 10.0133Z" fill="#F5841F" stroke="#F5841F" stroke-width="0.25" stroke-linecap="round" stroke-linejoin="round"/>
<path d="M5.98336 8.8656L2.0415 10.0133L0.727539 14.0857H4.22401L6.56982 14.1153L4.79562 10.6575L5.98336 8.8656Z" fill="#F5841F" stroke="#F5841F" stroke-width="0.25" stroke-linecap="round" stroke-linejoin="round"/>
<path d="M11.3278 10.85L11.5802 6.51096L12.7234 3.42334H7.63086L8.77406 6.51096L9.02646 10.85L9.12297 12.2124L9.1304 15.5814H11.2238L11.2313 12.2124L11.3278 10.85Z" fill="#F5841F" stroke="#F5841F" stroke-width="0.25" stroke-linecap="round" stroke-linejoin="round"/>
</g>
<defs>
<clipPath id="clip0">
<rect width="20" height="18.8571" fill="white" transform="translate(0 0.571411)"/>
</clipPath>
</defs>
</svg>
