<svg width="21" height="20" viewBox="0 0 21 20" fill="none" xmlns="http://www.w3.org/2000/svg">
<g clip-path="url(#clip0)">
<path d="M4.59631 6.25049C7.85706 3.05794 13.1438 3.05794 16.4045 6.25049L16.797 6.63472C16.96 6.79434 16.96 7.05315 16.797 7.21278L15.4545 8.52714C15.373 8.60696 15.2408 8.60696 15.1593 8.52714L14.6193 7.9984C12.3445 5.7712 8.65635 5.7712 6.38157 7.9984L5.80323 8.56464C5.72171 8.64445 5.58954 8.64445 5.50803 8.56464L4.16558 7.25027C4.00254 7.09065 4.00254 6.83184 4.16558 6.67221L4.59631 6.25049ZM19.1808 8.96874L20.3756 10.1385C20.5387 10.2982 20.5387 10.557 20.3756 10.7166L14.9883 15.9913C14.8252 16.151 14.5609 16.151 14.3979 15.9913C14.3979 15.9913 14.3979 15.9913 14.3979 15.9913L10.5742 12.2477C10.5335 12.2078 10.4674 12.2078 10.4266 12.2477C10.4266 12.2477 10.4266 12.2477 10.4266 12.2477L6.60312 15.9913C6.44008 16.151 6.17575 16.151 6.01271 15.9913C6.0127 15.9913 6.0127 15.9913 6.0127 15.9913L0.625208 10.7165C0.46217 10.5569 0.46217 10.2981 0.625208 10.1385L1.81999 8.96867C1.98303 8.80904 2.24736 8.80904 2.4104 8.96867L6.23407 12.7124C6.27483 12.7523 6.34091 12.7523 6.38167 12.7124C6.38167 12.7124 6.38167 12.7124 6.38167 12.7124L10.2051 8.96867C10.3682 8.80904 10.6325 8.80903 10.7956 8.96866C10.7956 8.96866 10.7956 8.96866 10.7956 8.96866L14.6192 12.7124C14.66 12.7523 14.7261 12.7523 14.7668 12.7124L18.5904 8.96874C18.7535 8.80911 19.0178 8.80911 19.1808 8.96874Z" fill="#3B99FC"/>
</g>
<defs>
<clipPath id="clip0">
<rect width="20" height="12.3333" fill="white" transform="translate(0.5 3.83337)"/>
</clipPath>
</defs>
</svg>
